<?xml version="1.0" encoding="iso-8859-1"?>
<!-- Uploaded to: SVG Repo, www.svgrepo.com, Generator: SVG Repo Mixer Tools -->
<svg height="800px" width="800px" version="1.1" id="Layer_1" xmlns="http://www.w3.org/2000/svg" xmlns:xlink="http://www.w3.org/1999/xlink" 
	 viewBox="0 0 392.533 392.533" xml:space="preserve">
<path style="fill:#FFFFFF;" d="M370.747,196.267c0-96.194-78.287-174.481-174.481-174.481c-96.194,0-174.481,78.287-174.481,174.481
	s78.287,174.481,174.481,174.481S370.747,292.461,370.747,196.267z"/>
<path style="fill:#FFC10D;" d="M196.267,337.907c-78.222,0-141.705-63.612-141.705-141.705S118.174,54.368,196.267,54.368
	s141.705,63.612,141.705,141.705S274.489,337.907,196.267,337.907z"/>
<g>
	<path style="fill:#194F82;" d="M196.267,0C87.984,0,0,87.984,0,196.267s87.984,196.267,196.267,196.267
		s196.267-87.984,196.267-196.267S304.549,0,196.267,0z M21.786,196.267c0-96.194,78.287-174.481,174.481-174.481
		s174.481,78.287,174.481,174.481s-78.287,174.481-174.481,174.481S21.786,292.461,21.786,196.267z"/>
	<path style="fill:#194F82;" d="M196.267,119.79c8.792,0,17.648,1.616,26.182,4.719c5.624,2.069,11.895-0.84,13.964-6.465
		c2.069-5.624-0.84-11.895-6.465-13.964c-10.99-4.008-22.303-6.012-33.681-6.012c-50.554,0-92.186,38.335-97.681,87.402H85.139
		c-6.012,0-10.925,4.848-10.925,10.925c0,6.012,4.848,10.925,10.925,10.925h13.446c5.43,48.937,47.127,87.208,97.681,87.208
		c11.378,0,22.691-2.004,33.681-6.012c5.624-2.069,8.598-8.339,6.465-13.964c-2.069-5.624-8.339-8.598-13.964-6.465
		c-8.598,3.168-17.39,4.719-26.182,4.719c-38.465,0-70.335-28.574-75.636-65.616h85.721c6.012,0,10.925-4.848,10.925-10.925
		c0-6.012-4.848-10.925-10.925-10.925H120.63C125.931,148.364,157.802,119.79,196.267,119.79z"/>
</g>
</svg>