<?xml version="1.0" encoding="iso-8859-1"?>
<!-- Uploaded to: SVG Repo, www.svgrepo.com, Generator: SVG Repo Mixer Tools -->
<svg height="800px" width="800px" version="1.1" id="Layer_1" xmlns="http://www.w3.org/2000/svg" xmlns:xlink="http://www.w3.org/1999/xlink" 
	 viewBox="0 0 511.999 511.999" xml:space="preserve">
<path style="fill:#CCD8E5;" d="M503.665,66.8v316.343c0,17.909-14.509,32.429-32.417,32.429H40.754
	c-17.909,0-32.418-14.52-32.418-32.429V66.8c0-17.909,14.509-32.429,32.418-32.429h430.493
	C489.155,34.371,503.665,48.891,503.665,66.8z"/>
<path style="fill:#DFEAF4;" d="M503.665,66.8v316.343c0,17.909-14.509,32.429-32.417,32.429H183.344l23.752-57.925L339.655,34.371
	h131.592C489.155,34.371,503.665,48.891,503.665,66.8z"/>
<path style="fill:#B8E9F2;" d="M503.665,66.8v290.847H8.337V66.8c0-17.909,14.509-32.429,32.418-32.429h430.493
	C489.155,34.371,503.665,48.891,503.665,66.8z"/>
<path style="fill:#D4F7FC;" d="M503.665,66.8v290.847H207.097L339.655,34.371h131.592C489.155,34.371,503.665,48.891,503.665,66.8z"
	/>
<polygon style="fill:#CCD8E5;" points="343.454,480.173 168.547,480.173 181.034,450.955 196.165,415.571 315.836,415.571 
	330.967,450.955 "/>
<polygon style="fill:#BAC6D1;" points="330.967,450.955 181.034,450.955 196.165,415.571 315.836,415.571 "/>
<path style="fill:#E8C262;" d="M462.595,299.82c0-107.742-87.342-195.084-195.084-195.084S72.428,192.078,72.428,299.82H462.595z"/>
<path style="fill:#F75757;" d="M405.457,161.873L405.457,161.873l-25.918,25.918v0.011l0,0
	c15.253,15.253,27.407,33.595,35.45,54.003c7.066,17.964,10.954,37.539,10.954,58.014h36.661
	C462.604,245.938,440.763,197.167,405.457,161.873z"/>
<path style="fill:#F2F2F2;" d="M425.931,299.819H109.089c0-87.498,70.934-158.421,158.421-158.421c9.31,0,18.431,0.8,27.296,2.344
	C369.295,156.673,425.931,221.631,425.931,299.819z"/>
<path style="fill:#FFFFFF;" d="M425.931,299.819H230.804l64.002-156.077C369.295,156.673,425.931,221.631,425.931,299.819z"/>
<path style="fill:#F75757;" d="M236.403,299.819c0-17.175,13.931-31.107,31.107-31.107c17.186,0,31.107,13.931,31.107,31.107"/>
<path d="M267.512,95.128c-112.164,0-203.416,91.252-203.416,203.416c0,4.602,3.731,8.332,8.332,8.332h283.481
	c4.603,0,8.332-3.731,8.332-8.332c0-4.602-3.729-8.332-8.332-8.332h-49.854c-1.288-5.962-3.929-11.424-7.583-16.054l44.851-44.852
	v8.011c0,4.602,3.729,8.332,8.332,8.332c4.603,0,8.332-3.731,8.332-8.332v-28.125c0-4.602-3.729-8.332-8.332-8.332h-28.127
	c-4.603,0-8.332,3.731-8.332,8.332s3.729,8.332,8.332,8.332h8.011l-45.974,45.974c-5.415-2.801-11.551-4.394-18.055-4.394
	c-18.888,0-34.709,13.35-38.544,31.108H117.65c4.335-78.903,69.895-141.758,149.863-141.758s145.527,62.855,149.862,141.758h-33.69
	c-4.603,0-8.332,3.731-8.332,8.332c0,4.602,3.729,8.332,8.332,8.332h78.912c4.603,0,8.332-3.731,8.332-8.332
	C470.927,186.38,379.676,95.128,267.512,95.128z M267.51,275.769c9.615,0,17.84,5.999,21.175,14.443h-42.348
	C249.67,281.767,257.895,275.769,267.51,275.769z M405.26,172.58c13.441,14.687,24.566,31.523,32.803,49.926l-18.622,7.326
	c-7.192-15.841-16.792-30.364-28.328-43.104L405.26,172.58z M259.18,131.998c-17.699,0.875-34.675,4.53-50.513,10.524l-7.996-18.365
	c18.3-7.038,37.979-11.266,58.508-12.172L259.18,131.998L259.18,131.998z M275.844,111.985c20.529,0.905,40.209,5.134,58.508,12.172
	l-7.997,18.365c-15.838-5.994-32.814-9.649-50.513-10.524v-20.013H275.844z M143.91,186.727
	c-11.536,12.74-21.137,27.264-28.329,43.104l-18.622-7.324c8.237-18.403,19.362-35.239,32.803-49.926L143.91,186.727z
	 M80.944,290.212c0.802-18.194,4.229-35.717,9.896-52.207l18.625,7.326c-4.796,14.207-7.727,29.265-8.499,44.881H80.944z
	 M155.694,174.943l-14.152-14.151c13.057-11.95,27.817-22.068,43.863-29.955l7.993,18.36
	C179.649,156.046,166.97,164.732,155.694,174.943z M341.625,149.196l7.994-18.36c16.045,7.888,30.806,18.004,43.863,29.955
	l-14.152,14.152C368.053,164.732,355.374,156.046,341.625,149.196z M434.058,290.212c-0.772-15.617-3.703-30.674-8.499-44.881
	l18.625-7.326c5.666,16.491,9.093,34.013,9.896,52.208h-20.023V290.212z"/>
<path d="M471.246,24.766H40.754C18.283,24.766,0,43.049,0,65.52v59.227c0,4.602,3.731,8.332,8.332,8.332s8.332-3.731,8.332-8.332
	V65.52c0-13.284,10.807-24.09,24.09-24.09h430.492c13.284,0,24.09,10.807,24.09,24.09v284.411h-52.21
	c-4.602,0-8.332,3.731-8.332,8.332s3.731,8.332,8.332,8.332h52.21v15.273c0,13.284-10.807,24.09-24.09,24.09h-155.41H196.164H40.754
	c-13.284,0-24.09-10.807-24.09-24.09v-15.273h398.688c4.602,0,8.332-3.731,8.332-8.332s-3.731-8.332-8.332-8.332H16.664V152.522
	c0-4.602-3.731-8.332-8.332-8.332S0,147.92,0,152.522v229.348c0,22.472,18.283,40.754,40.754,40.754H183.54l-20.494,47.945h-40.034
	c-4.602,0-8.332,3.731-8.332,8.332s3.731,8.332,8.332,8.332h265.975c4.602,0,8.332-3.731,8.332-8.332s-3.731-8.332-8.332-8.332
	h-40.034l-20.494-47.945h142.786c22.472,0,40.754-18.282,40.754-40.754V65.52C512,43.049,493.717,24.766,471.246,24.766z
	 M330.83,470.568H181.17l14.238-33.31h121.185L330.83,470.568z"/>
<path d="M253.972,376.221c-3.517,0.879-6.116,4.048-6.291,7.67c-0.364,7.534,9.106,11.629,14.33,6.172
	c2.663-2.782,3.078-7.177,0.913-10.385C261.01,376.772,257.341,375.379,253.972,376.221z"/>
</svg>